{
  "accessors": [
    {
      "bufferView": 2,
      "componentType": 5126,
      "count": 880,
      "max": [
        38.169929504394531,
        41.545806884765625,
        43.927749633789062
      ],
      "min": [
        -38.169925689697266,
        -40.590057373046875,
        -35.576023101806641
      ],
      "type": "VEC3"
    },
    {
      "bufferView": 2,
      "byteOffset": 10560,
      "componentType": 5126,
      "count": 880,
      "max": [
        0.99991583824157715,
        0.99898731708526611,
        0.99978655576705933
      ],
      "min": [
        -0.9989510178565979,
        -0.99908733367919922,
        -0.99993807077407837
      ],
      "type": "VEC3"
    },
    {
      "bufferView": 1,
      "componentType": 5126,
      "count": 880,
      "max": [
        0.99000000953674316,
        0.97889107465744019
      ],
      "min": [
        0.0099999997764825821,
        0.0099999997764825821
      ],
      "type": "VEC2"
    },
    {
      "bufferView": 0,
      "componentType": 5125,
      "count": 4674,
      "max": [
        879
      ],
      "min": [
        0
      ],
      "type": "SCALAR"
    }
  ],
  "asset": {
    "extras": {
      "author": "TahirNilin (https://sketchfab.com/TahirNilin)",
      "license": "CC-BY-4.0 (http://creativecommons.org/licenses/by/4.0/)",
      "source": "https://sketchfab.com/3d-models/apple-643eb66651864bb78871e5c1066b4ef6",
      "title": "Apple"
    },
    "generator": "Sketchfab-7.47.0",
    "version": "2.0"
  },
  "bufferViews": [
    {
      "buffer": 0,
      "byteLength": 18696,
      "byteOffset": 0,
      "name": "floatBufferViews",
      "target": 34963
    },
    {
      "buffer": 0,
      "byteLength": 7040,
      "byteOffset": 18696,
      "byteStride": 8,
      "name": "floatBufferViews",
      "target": 34962
    },
    {
      "buffer": 0,
      "byteLength": 21120,
      "byteOffset": 25736,
      "byteStride": 12,
      "name": "floatBufferViews",
      "target": 34962
    }
  ],
  "buffers": [
    {
      "byteLength": 46856,
      "uri": "scene.bin"
    }
  ],
  "images": [
    {
      "uri": "textures/Material_35_baseColor.png"
    }
  ],
  "materials": [
    {
      "doubleSided": true,
      "emissiveFactor": [
        0,
        0,
        0
      ],
      "name": "Material_35",
      "pbrMetallicRoughness": {
        "baseColorFactor": [
          1,
          1,
          1,
          1
        ],
        "baseColorTexture": {
          "index": 0,
          "texCoord": 0
        },
        "metallicFactor": 0,
        "roughnessFactor": 0.59999999999999998
      }
    }
  ],
  "meshes": [
    {
      "name": "apple_low_obj_Material #35_0",
      "primitives": [
        {
          "attributes": {
            "NORMAL": 1,
            "POSITION": 0,
            "TEXCOORD_0": 2
          },
          "indices": 3,
          "material": 0,
          "mode": 4
        }
      ]
    }
  ],
  "nodes": [
    {
      "children": [
        1
      ],
      "name": "RootNode (gltf orientation matrix)",
      "rotation": [
        -0.70710678118654746,
        -0,
        -0,
        0.70710678118654757
      ]
    },
    {
      "children": [
        2
      ],
      "name": "RootNode (model correction matrix)"
    },
    {
      "children": [
        3
      ],
      "matrix": [
        1,
        0,
        0,
        0,
        0,
        0,
        1,
        0,
        0,
        -1,
        0,
        0,
        0,
        0,
        0,
        1
      ],
      "name": "4721ce27a7d5455693bf2ce2348453a9.fbx"
    },
    {
      "children": [
        4
      ],
      "name": "RootNode"
    },
    {
      "children": [
        5
      ],
      "matrix": [
        -0.99999999999999623,
        8.7422776695940437e-08,
        -1.2246465878873718e-16,
        0,
        1.3078007658931367e-14,
        1.5099580241706434e-07,
        0.99999999999998868,
        0,
        8.7422776695939458e-08,
        0.9999999999999849,
        -1.5099580252808664e-07,
        0,
        24.367088317871094,
        -39.753116607666016,
        -43.146091461181641,
        1
      ],
      "name": "HeroObjectGroup"
    },
    {
      "children": [
        6
      ],
      "matrix": [
        1,
        -7.0257924371246364e-30,
        3.1726541610125879e-23,
        0,
        7.0257924371246364e-30,
        1,
        0,
        0,
        -3.1726541610125879e-23,
        2.2290409610054247e-52,
        1,
        0,
        24.367092132568359,
        43.146095275878906,
        39.753108978271484,
        1
      ],
      "name": "apple_low_obj"
    },
    {
      "mesh": 0,
      "name": "apple_low_obj_Material #35_0"
    }
  ],
  "samplers": [
    {
      "magFilter": 9729,
      "minFilter": 9987,
      "wrapS": 10497,
      "wrapT": 10497
    }
  ],
  "scene": 0,
  "scenes": [
    {
      "name": "OSG_Scene",
      "nodes": [
        0
      ]
    }
  ],
  "textures": [
    {
      "sampler": 0,
      "source": 0
    }
  ]
}

